<svg width="32" height="29" viewBox="0 0 32 29" fill="none" xmlns="http://www.w3.org/2000/svg">
<g id="Vector">
<path d="M9.75632 24.3599C11.0495 24.3599 12.0978 25.3986 12.0978 26.6799C12.0978 27.9611 11.0495 28.9998 9.75632 28.9998C8.46318 28.9998 7.41488 27.9611 7.41488 26.6799C7.41488 25.3986 8.46318 24.3599 9.75632 24.3599Z" fill="white"/>
<path d="M23.805 24.3601C25.0981 24.3601 26.1464 25.3986 26.1464 26.68C26.1464 27.9613 25.0981 29 23.805 29C22.5119 29 21.4635 27.9613 21.4635 26.68C21.4635 25.3986 22.5119 24.3601 23.805 24.3601Z" fill="white"/>
<path d="M1.55934 0.0659824C0.949364 -0.146511 0.281038 0.171185 0.0665933 0.775551C-0.147867 1.37993 0.17277 2.04213 0.782731 2.2546L1.55934 0.0659824ZM30.2951 11.8054L31.4417 12.0397L31.4432 12.0326L30.2951 11.8054ZM6.9592 11.6156V7.40619H4.61776V11.6156H6.9592ZM1.96708 0.208011L1.55934 0.0659824L0.782731 2.2546L1.19047 2.39665L1.96708 0.208011ZM15.1221 21.6533H23.3997V19.3333H15.1221V21.6533ZM6.9592 7.40619C6.9592 6.31247 6.9608 5.39979 6.87977 4.65813C6.7959 3.89041 6.61418 3.19021 6.17402 2.55201L4.24084 3.86093C4.38173 4.06523 4.49053 4.34582 4.55192 4.90779C4.61617 5.49584 4.61776 6.26175 4.61776 7.40619H6.9592ZM1.19047 2.39665C2.23258 2.75968 2.91745 3.00026 3.42141 3.24526C3.89472 3.47537 4.10338 3.66163 4.24084 3.86093L6.17402 2.55201C5.73043 1.90882 5.14062 1.49689 4.45282 1.16251C3.79562 0.843 2.9567 0.552757 1.96708 0.208011L1.19047 2.39665ZM4.61776 11.6156C4.61776 13.8621 4.63904 15.482 4.85297 16.7197C5.08137 18.041 5.53739 18.987 6.39003 19.8781L8.08918 18.2819C7.58943 17.7596 7.31986 17.2482 7.1608 16.3281C6.98729 15.3241 6.9592 13.9185 6.9592 11.6156H4.61776ZM15.1221 19.3333C12.9105 19.3333 11.376 19.3306 10.2199 19.1682C9.10407 19.0113 8.51461 18.7264 8.08918 18.2819L6.39003 19.8781C7.31702 20.8469 8.49213 21.2686 9.89113 21.4651C11.2498 21.6561 12.9803 21.6533 15.1221 21.6533V19.3333ZM5.78848 7.1458H24.7241V4.82583H5.78848V7.1458ZM29.1485 11.5713L28.3684 15.3215L30.6616 15.7898L31.4417 12.0397L29.1485 11.5713ZM24.7241 7.1458C26.0609 7.1458 27.2374 7.14734 28.1658 7.25018C28.6272 7.30128 28.9725 7.37227 29.2151 7.45675C29.467 7.54446 29.5072 7.61175 29.487 7.58565L31.3428 6.17107C30.976 5.6987 30.4603 5.43127 29.9914 5.26797C29.5129 5.10142 28.9719 5.00504 28.426 4.94459C27.3399 4.82429 26.0175 4.82583 24.7241 4.82583V7.1458ZM31.4432 12.0326C31.7073 10.7211 31.9316 9.6208 31.9866 8.73943C32.0429 7.83279 31.9388 6.93881 31.3428 6.17107L29.487 7.58565C29.5838 7.71044 29.6907 7.93516 29.6495 8.5965C29.6067 9.28312 29.4247 10.2001 29.147 11.5784L31.4432 12.0326ZM23.3997 21.6533C24.5887 21.6533 25.5865 21.6553 26.3909 21.5577C27.2271 21.4564 27.9898 21.2348 28.6555 20.6972L27.1763 18.8987C26.9809 19.0565 26.7038 19.1825 26.1064 19.2551C25.4771 19.3313 24.6474 19.3333 23.3997 19.3333V21.6533ZM28.3684 15.3215C28.1165 16.5322 27.947 17.3371 27.7445 17.9324C27.5524 18.4974 27.3718 18.741 27.1763 18.8987L28.6555 20.6972C29.3213 20.1596 29.6943 19.4642 29.9634 18.6732C30.2222 17.9123 30.4216 16.9436 30.6616 15.7898L28.3684 15.3215Z" fill="white"/>
</g>
</svg>
