<svg width="181" height="58" viewBox="0 0 181 58" fill="none" xmlns="http://www.w3.org/2000/svg">
<g id="Fruzo">
<path d="M12.8361 8.60998C14.1861 8.60998 15.0861 8.51998 15.6261 8.33998C20.3061 6.80998 22.9161 6.08998 23.4561 6.08998C28.8561 6.08998 31.5561 9.23998 31.5561 15.54V17.34C30.1161 21.39 27.8661 23.46 24.7161 23.46C22.2861 23.46 21.0261 22.47 21.0261 20.49V14.37C21.0261 11.94 19.5861 10.77 16.6161 10.77H15.3561C11.7561 12.3 9.95605 15.9 9.95605 21.66C9.95605 23.91 10.8561 25.8 12.6561 27.24C15.2661 29.31 16.5261 30.57 16.5261 31.11C16.5261 31.56 16.4361 31.92 16.2561 32.19C14.5461 34.98 13.7361 36.51 13.7361 36.78C13.7361 37.41 14.0061 38.22 14.4561 39.39C15.5361 42.18 16.0761 43.89 16.0761 44.52C16.0761 48.75 14.0061 50.82 9.77606 50.82C6.89605 50.82 5.18605 49.56 4.55605 47.04V45.24C4.55605 43.89 4.64605 42.9 4.82605 42.27C5.54605 39.3 5.90605 37.32 5.90605 36.33C5.90605 33.9 5.27605 31.02 4.10605 27.69C2.66605 23.64 1.94605 21.57 1.85605 21.39C1.22605 19.32 0.956055 17.43 0.956055 15.9C0.956055 11.67 2.39605 9.14998 5.27605 8.33998H9.05606C9.95605 8.42998 10.6761 8.51998 11.1261 8.51998C11.2161 8.60998 11.8461 8.60998 12.8361 8.60998ZM24.6261 12.84V14.37C24.6261 15.36 24.4461 16.71 24.1761 18.24C24.0861 18.24 24.0861 18.24 24.0861 18.33C24.0861 18.6 24.1761 18.69 24.4461 18.69C25.2561 18.69 25.7061 17.52 25.7061 15.09C25.7061 11.04 23.7261 8.96999 19.7661 8.96999H19.4061C22.1961 10.05 23.9961 11.31 24.6261 12.84ZM4.28605 15.09C4.28605 16.35 4.46605 17.16 4.82605 17.52C5.72605 16.89 6.17605 15.45 6.17605 13.2C6.17605 12.75 5.99605 12.57 5.54605 12.57C4.73605 12.57 4.28605 13.38 4.28605 15.09ZM9.32605 32.37C9.32605 32.46 9.32605 32.46 9.41605 32.46C9.68605 32.46 9.77606 32.1 9.77606 31.38C9.77606 28.41 9.05606 26.97 7.52606 26.97H7.25605C7.34606 28.5 8.06605 30.3 9.32605 32.37ZM8.15605 43.89V44.97C8.42605 45.15 8.60605 45.24 8.69605 45.24C9.41606 45.24 9.77606 44.34 9.77606 42.63C9.77606 37.5 9.59605 34.62 9.32605 33.99L9.05606 34.17C8.42606 34.8 8.15605 38.04 8.15605 43.89Z" fill="white"/>
<path d="M35.6208 14.46C35.6208 8.87998 39.7608 6.08998 47.9508 6.08998C57.7608 6.08998 62.7108 9.86998 62.7108 17.43C62.7108 22.38 61.5408 26.34 59.1108 29.22C55.6008 32.37 53.8908 34.89 53.8908 36.69C53.8908 39.57 55.1508 41.01 57.7608 41.01C58.5708 41.01 59.3808 40.74 60.1908 40.29C62.4408 38.94 63.8808 38.22 64.5108 38.22C66.5808 38.22 67.6608 39.75 67.6608 42.72C67.6608 48.21 65.6808 50.91 61.8108 50.91C58.3908 50.91 54.7908 48.75 51.0108 44.34C49.9308 43.17 48.7608 42.54 47.4108 42.54C45.4308 42.54 44.2608 43.62 43.9908 45.69C43.5408 48.75 43.1808 50.46 43.0908 50.82C42.4608 52.53 41.2008 53.34 39.3108 53.34C35.8008 53.34 34.0908 51 34.0908 46.23C34.0908 44.52 34.1808 43.44 34.3608 42.99C35.3508 40.47 36.2508 37.95 37.0608 35.34C37.9608 32.46 38.4108 30.03 38.4108 28.14C38.4108 26.7 38.1408 24.99 37.5108 22.92C36.2508 18.96 35.6208 16.17 35.6208 14.46ZM39.2208 14.01C39.2208 15 39.3108 15.54 39.5808 15.54C40.9308 15.54 41.5608 14.55 41.5608 12.48C41.5608 11.94 41.1108 11.67 40.1208 11.67C39.4908 11.67 39.2208 12.48 39.2208 14.01ZM43.7208 22.2C43.7208 27.51 44.9808 30.21 47.4108 30.21C49.3008 30.21 50.2908 28.77 50.2908 25.98C50.2908 20.94 49.0308 18.42 46.5108 18.42C44.6208 18.42 43.7208 19.68 43.7208 22.2ZM51.6408 30.57V31.38C53.7108 31.38 54.7908 28.77 54.7908 23.64C54.7908 23.01 54.7008 22.65 54.6108 22.47C54.1608 25.08 53.1708 27.78 51.6408 30.57ZM40.8408 32.46C40.8408 34.53 40.6608 35.97 40.3908 36.69C38.4108 41.28 37.4208 44.25 37.4208 45.6C37.4208 46.05 37.4208 46.59 37.5108 47.04C37.4208 47.31 37.6008 47.49 37.9608 47.49C38.1408 47.49 38.3208 46.77 38.5908 45.24C38.8608 43.71 40.1208 41.01 42.4608 37.14C42.7308 36.6 42.9108 36.06 42.9108 35.52V34.89C42.7308 34.17 42.4608 33.09 42.0108 31.74C41.5608 29.49 41.1108 27.24 40.8408 24.99L40.6608 24.54C40.5708 24.9 40.5708 25.26 40.5708 25.53C40.5708 26.16 40.5708 26.43 40.6608 26.52C40.6608 27.33 40.7508 28.59 40.8408 30.12V32.46Z" fill="white"/>
<path d="M64.8525 12.84C64.8525 4.55998 68.0925 0.419983 74.6625 0.419983C81.9525 0.419983 85.5525 4.10998 85.5525 11.58V13.47C85.0125 15.27 82.8525 18.78 79.0725 24C77.7225 26.61 77.0025 28.77 77.0025 30.48C77.0025 31.65 77.0925 32.46 77.2725 33C77.9925 35.43 78.8025 37.77 79.7025 40.02C80.8725 43.17 82.9425 44.79 85.7325 44.79C89.6025 44.79 91.9425 42.63 92.5725 38.22V32.82C92.3025 30.3 92.2125 28.41 92.1225 27.15C92.0325 26.97 92.0325 26.43 92.0325 25.44C92.0325 24.54 92.0325 24 92.1225 23.82C92.4825 21.3 92.6625 19.41 92.7525 18.15C92.9325 15.36 93.0225 12.66 93.0225 9.86998C93.6525 4.19998 95.9925 1.31998 99.8625 1.31998C102.473 1.31998 104.273 3.29998 105.353 7.34999C105.803 9.05998 106.073 11.13 106.073 13.38C106.073 16.17 105.623 18.69 104.723 20.85C103.373 24.18 101.933 27.51 100.403 30.75C99.8625 32.55 99.0525 37.05 97.9725 44.25C96.9825 48.66 94.1025 50.82 89.1525 50.82C81.8625 50.82 77.1825 48.12 75.0225 42.72C73.8525 39.84 72.6825 36.87 71.6025 33.9C71.1525 32.73 70.8825 30.3 70.9725 26.52C70.7025 25.26 70.1625 24.09 69.3525 22.92L66.4725 18.6C65.3925 16.71 64.8525 14.73 64.8525 12.84ZM97.2525 8.69998C97.2525 11.49 97.1625 14.19 97.0725 16.8C96.9825 17.16 96.8925 17.7 96.8025 18.42C95.9925 22.83 95.6325 25.44 95.6325 26.34C96.0825 26.34 96.2625 26.25 96.3525 26.07C98.0625 20.31 98.8725 15.18 98.8725 10.68V7.79998C98.6925 7.34998 98.5125 7.16998 98.2425 7.16998C97.8825 7.16998 97.5225 7.70998 97.2525 8.69998ZM69.3525 11.76C69.3525 13.2 69.9825 13.92 71.1525 13.92C71.8725 13.92 72.2325 13.65 72.2325 13.2C73.0425 13.2 73.4025 12.21 73.4025 10.23C73.4025 8.51998 73.1325 7.61998 72.5025 7.61998C70.4325 7.61998 69.3525 8.96999 69.3525 11.76ZM73.5825 30.21C73.5825 30.84 73.5825 31.29 73.6725 31.47L73.8525 31.92V27.6C73.6725 27.87 73.5825 28.77 73.5825 30.21ZM93.6525 43.53V43.8C94.2825 43.53 94.9125 41.91 95.4525 39.12C95.7225 37.59 95.9025 35.7 95.9025 33.36C95.9025 33.09 95.8125 32.91 95.7225 32.82C94.3725 35.25 93.6525 38.85 93.6525 43.53Z" fill="white"/>
<path d="M108.534 21.21C108.534 19.5 109.254 16.35 110.604 11.58C111.774 7.25998 114.564 4.82999 118.884 4.37999C122.754 4.01998 125.724 3.56999 127.704 3.02998C130.584 2.30999 132.204 1.94998 132.474 1.94998C139.314 1.94998 142.734 5.27999 142.734 11.94C142.734 14.73 141.654 18.06 139.584 21.75C137.874 24.72 136.164 27.6 134.454 30.48C134.004 31.11 132.114 33.36 128.604 37.05C127.074 39.12 126.264 41.37 126.264 43.8C126.264 47.13 127.704 48.75 130.584 48.75C133.464 48.75 135.534 46.5 136.704 42C137.514 38.76 138.054 36.96 138.234 36.6C139.584 34.17 141.744 33 144.624 33C150.114 33 152.904 36.51 152.904 43.62C152.904 48.12 150.924 50.37 147.054 50.37C146.694 50.37 146.424 50.37 146.334 50.28C145.434 50.19 144.804 50.1 144.354 50.1H143.004C141.024 50.1 139.134 50.64 137.334 51.72C135.084 53.16 133.374 54.24 132.204 54.87C128.784 56.67 125.994 57.57 123.744 57.57C118.254 57.57 115.464 55.23 115.464 50.64C115.464 48.21 116.814 44.97 119.604 41.1C122.574 36.78 125.544 32.46 128.604 28.23C131.574 23.28 133.104 18.96 133.104 15.36V12.93C132.294 10.14 130.854 8.69998 128.694 8.69998C125.634 8.69998 123.654 10.86 122.754 15.18L120.504 25.8C119.784 28.95 118.074 30.57 115.284 30.57C110.784 30.57 108.534 27.42 108.534 21.21ZM113.034 20.67C113.034 21.21 113.304 21.66 113.754 21.93C114.204 21.12 114.384 20.49 114.384 19.95V19.5C114.204 19.77 114.024 19.95 113.844 19.95H113.754C113.844 19.14 114.294 17.97 115.104 16.53C116.094 14.73 116.634 13.2 116.634 11.85V10.86C115.554 10.86 114.654 12.21 113.934 15C113.304 17.25 113.034 19.14 113.034 20.67ZM128.154 33V33.18C128.874 32.55 130.044 31.02 131.754 28.68C132.924 26.61 134.004 24.54 135.084 22.38C136.614 19.41 137.334 16.62 137.334 14.19C137.334 13.74 137.244 13.47 137.154 13.38C137.064 13.47 136.884 14.46 136.434 16.53C135.444 21.3 132.654 26.79 128.154 33ZM135.534 49.2H135.624C135.804 49.2 136.074 49.02 136.434 48.75C141.294 44.52 143.724 42 143.724 41.28C143.724 41.01 143.724 40.65 143.634 40.38C143.634 40.29 143.364 40.29 142.914 40.29C142.914 39.75 143.004 39.48 143.184 39.48C142.914 39.21 142.734 39.03 142.554 39.03C142.374 39.12 141.924 40.11 141.204 42.18C140.664 43.53 138.774 45.87 135.534 49.2ZM119.784 49.83C119.784 50.28 120.054 50.55 120.594 50.55C121.134 50.55 121.404 50.37 121.404 49.92C121.404 48.75 121.224 47.76 120.954 47.13C120.144 47.58 119.784 48.48 119.784 49.83Z" fill="white"/>
<path d="M154.413 15.63C154.413 6.44998 158.463 1.85999 166.563 1.85999C173.943 1.85999 177.633 4.37999 177.633 9.50998V10.59C175.383 16.53 174.213 20.58 174.213 22.74C174.213 25.26 175.203 28.68 177.183 32.91C178.083 34.71 178.713 36.06 179.163 36.96C179.793 38.31 180.063 39.93 180.063 41.73C180.063 49.38 176.733 53.16 169.983 53.16C160.893 53.16 156.393 49.02 156.393 40.83C156.393 39.39 156.393 38.58 156.483 38.31C156.573 37.32 156.663 36.51 156.663 36.06V33C156.663 29.85 156.393 26.79 155.763 23.91C154.863 19.59 154.413 16.8 154.413 15.63ZM162.963 11.31C162.963 12.48 163.683 15.45 165.033 20.31V21.39C165.033 21.66 164.403 23.64 163.233 27.51C162.423 29.94 162.063 32.01 162.063 33.9C162.063 36.15 162.423 38.31 163.233 40.29C165.033 45.15 167.373 47.58 170.163 47.58C172.863 47.58 174.213 45.96 174.213 42.81C174.213 41.37 173.943 39.84 173.313 38.31C170.703 31.92 169.443 26.97 169.443 23.46C169.443 23.1 169.443 22.74 169.533 22.29C170.523 18.42 171.063 15.36 171.063 13.02C171.063 8.60998 169.623 6.35998 166.743 6.35998C164.223 6.35998 162.963 7.97999 162.963 11.31ZM173.583 9.95998H173.853C173.853 8.33998 173.133 7.16998 171.783 6.35998L171.693 6.44998L172.683 8.15999C172.953 8.78999 173.313 9.32998 173.583 9.95998ZM157.113 11.04C157.113 11.49 157.203 11.67 157.383 11.76C156.933 15.45 157.563 18.51 159.183 20.94V18.69L158.913 14.37C158.913 13.02 159.003 11.76 159.183 10.41V10.14C159.183 9.86998 159.093 9.41998 158.913 8.78998H158.823C157.653 8.78998 157.113 9.50998 157.113 11.04ZM171.333 20.49V20.76L171.063 22.2C171.063 23.01 171.333 24.45 171.783 26.61C172.593 30.39 173.223 32.37 173.763 32.64C172.413 28.59 171.693 25.44 171.693 23.28C171.693 22.74 171.693 22.38 171.783 22.29L173.583 13.74V12.84C173.403 12.93 173.133 13.83 172.683 15.36L171.333 20.49ZM158.913 37.5V41.19C159.183 42.81 159.633 43.71 160.083 43.89V42.99C159.453 38.94 159.273 35.07 159.363 31.29L159.183 31.56C159.003 31.74 158.913 33.72 158.913 37.5ZM174.393 47.67C174.393 47.85 174.573 48.03 174.933 48.21C176.463 46.95 177.183 45.06 177.183 42.54C177.183 42.27 177.093 41.64 176.913 40.74C176.823 41.73 176.013 43.98 174.483 47.49C174.393 47.58 174.393 47.58 174.393 47.67Z" fill="white"/>
</g>
</svg>
